<svg xmlns="http://www.w3.org/2000/svg" width="260" height="80.461" viewBox="0 0 260 80.461"><defs><style>.a{fill:#ef9e0e;}</style></defs><g transform="translate(-4.13 -27.741)"><path class="a" d="M229.353,142.167c-14.536,0-25.6-10.318-25.6-26.638,0-16.228,11.441-26.449,25.977-26.449,14.634,0,25.982,10.206,25.982,26.449C255.709,131.849,243.987,142.167,229.353,142.167Zm0-7.5c8.909,0,17.632-6.1,17.632-19.134,0-12.942-8.534-19.042-17.35-19.042-9.006,0-17.166,6.1-17.166,19.042C212.469,128.563,220.444,134.663,229.353,134.663Z" transform="translate(-106.141 -33.964)"/><path class="a" d="M321,53.76h8.534v72H321Z" transform="translate(-167.544 -18.405)"/><path class="a" d="M357.189,55.558a5.721,5.721,0,1,1,5.832,5.632,5.833,5.833,0,0,1-4.156-1.618A5.432,5.432,0,0,1,357.189,55.558Zm1.4,13.677h8.534v49.636h-8.534Z" transform="translate(-186.737 -11.514)"/><path class="a" d="M400.438,84.165H393.78V77.132h6.658V64.19h8.539V77.132h13.409v7.033H408.977v30.293c0,5.069,1.876,6.848,7.125,6.848h6.284v7.222H414.7c-9.1,0-14.26-3.752-14.26-14.07Z" transform="translate(-206.508 -21.171)"/><path class="a" d="M477.663,142.167c-14.629,0-25.413-10.318-25.413-26.638,0-16.228,10.41-26.449,25.413-26.449,14.916,0,24.67,10.507,24.67,24.573a45.914,45.914,0,0,1-.282,5.161H460.974c.656,10.41,7.97,16.131,16.689,16.131,7.693,0,12.573-3.937,14.449-9.472h9.19C498.673,134.852,490.421,142.167,477.663,142.167Zm-16.6-30.283h32.451c.092-10.036-7.407-15.552-16.228-15.552C468.944,96.3,462,101.833,461.066,111.883Z" transform="translate(-238.203 -33.964)"/><path class="a" d="M90.5,70.091a8.316,8.316,0,1,0-5.89-2.436A8.325,8.325,0,0,0,90.5,70.091Z" transform="translate(-38.758 -14.158)"/><path class="a" d="M77.685,88.409l17.5-29.228a20.772,20.772,0,1,0-35.479.277Zm-.34-52.28A12.447,12.447,0,1,1,64.9,48.571,12.447,12.447,0,0,1,77.345,36.129Z" transform="translate(-26.961 0)"/><path class="a" d="M95.669,79.873,74.489,57.886a26.434,26.434,0,0,1-2.727,19.555L52.507,110.836a2.063,2.063,0,0,1-1.784,1.009h0a2.073,2.073,0,0,1-1.764-1.009L29.208,77.795A26.452,26.452,0,0,1,26.321,57.72L4.976,79.873a3.078,3.078,0,0,0,0,4.238,2.813,2.813,0,0,0,4.083,0l2.3-2.376v38.1a8.464,8.464,0,0,0,8.3,8.617H34.092a1.838,1.838,0,0,0,1.8-1.872H64.769a1.838,1.838,0,0,0,1.8,1.872H81.007a8.464,8.464,0,0,0,8.3-8.617v-38.1L91.6,84.111a2.812,2.812,0,0,0,4.083,0,3.078,3.078,0,0,0,0-4.238Z" transform="translate(0 -20.441)"/></g></svg>